<svg xmlns="http://www.w3.org/2000/svg" xmlns:xlink="http://www.w3.org/1999/xlink" version="1.1" width="256" height="256" viewBox="0 0 256 256" xml:space="preserve">
<defs>
</defs>
<g transform="translate(128 128) scale(0.72 0.72)" style="">
	<g style="stroke: none; stroke-width: 0; stroke-dasharray: none; stroke-linecap: butt; stroke-linejoin: miter; stroke-miterlimit: 10; fill: none; fill-rule: nonzero; opacity: 1;" transform="translate(-175.05 -175.05000000000004) scale(3.89 3.89)" >
	<path d="M 25.203 45 c 0 0.586 0.205 1.173 0.616 1.644 L 39.08 61.839 c 0.908 1.041 2.487 1.148 3.527 0.24 c 1.04 -0.909 1.146 -2.489 0.24 -3.527 L 31.021 45 l 11.826 -13.553 c 0.907 -1.04 0.799 -2.62 -0.24 -3.527 c -1.04 -0.907 -2.619 -0.8 -3.527 0.24 L 25.819 43.356 C 25.408 43.827 25.203 44.414 25.203 45 z" style="stroke: none; stroke-width: 1; stroke-dasharray: none; stroke-linecap: butt; stroke-linejoin: miter; stroke-miterlimit: 10; fill: rgb(0,0,0); fill-rule: nonzero; opacity: 1;" transform=" matrix(1 0 0 1 0 0) " stroke-linecap="round" />
	<path d="M 25.203 45 c 0 1.381 1.119 2.5 2.5 2.5 h 34.593 c 1.381 0 2.5 -1.119 2.5 -2.5 s -1.119 -2.5 -2.5 -2.5 H 27.703 C 26.322 42.5 25.203 43.619 25.203 45 z" style="stroke: none; stroke-width: 1; stroke-dasharray: none; stroke-linecap: butt; stroke-linejoin: miter; stroke-miterlimit: 10; fill: rgb(0,0,0); fill-rule: nonzero; opacity: 1;" transform=" matrix(1 0 0 1 0 0) " stroke-linecap="round" />
	<path d="M 0 45 c 0 24.813 20.187 45 45 45 c 24.813 0 45 -20.187 45 -45 C 90 20.187 69.813 0 45 0 C 20.187 0 0 20.187 0 45 z M 85 45 c 0 22.056 -17.944 40 -40 40 C 22.944 85 5 67.056 5 45 C 5 22.944 22.944 5 45 5 C 67.056 5 85 22.944 85 45 z" style="stroke: none; stroke-width: 1; stroke-dasharray: none; stroke-linecap: butt; stroke-linejoin: miter; stroke-miterlimit: 10; fill: rgb(0,0,0); fill-rule: nonzero; opacity: 1;" transform=" matrix(1 0 0 1 0 0) " stroke-linecap="round" />
</g>
</g>
</svg>